<svg width="16" height="17" viewBox="0 0 16 17" fill="none" xmlns="http://www.w3.org/2000/svg">
<path d="M14.3732 2.16406C14.3275 2.11389 14.2721 2.07349 14.2104 2.04532C14.1487 2.01714 14.0819 2.00177 14.0141 2.00014C13.9463 1.9985 13.8788 2.01063 13.8158 2.0358C13.7528 2.06097 13.6956 2.09865 13.6475 2.14656L13.261 2.53125C13.2141 2.57813 13.1878 2.64169 13.1878 2.70797C13.1878 2.77425 13.2141 2.83781 13.261 2.88469L13.6154 3.23844C13.6386 3.26178 13.6662 3.2803 13.6966 3.29293C13.727 3.30557 13.7596 3.31207 13.7925 3.31207C13.8255 3.31207 13.8581 3.30557 13.8885 3.29293C13.9189 3.2803 13.9465 3.26178 13.9697 3.23844L14.3466 2.86344C14.5372 2.67313 14.555 2.36313 14.3732 2.16406ZM12.4794 3.3125L6.83816 8.94375C6.80396 8.97782 6.7791 9.02011 6.76598 9.06656L6.50504 9.84375C6.49879 9.86484 6.49834 9.88722 6.50376 9.90854C6.50917 9.92986 6.52023 9.94932 6.53579 9.96488C6.55134 9.98043 6.5708 9.9915 6.59212 9.99691C6.61344 10.0023 6.63583 10.0019 6.65691 9.99563L7.43348 9.73469C7.47993 9.72156 7.52222 9.6967 7.55629 9.6625L13.1875 4.02063C13.2396 3.96797 13.2689 3.89689 13.2689 3.82281C13.2689 3.74874 13.2396 3.67766 13.1875 3.625L12.8766 3.3125C12.8239 3.25993 12.7525 3.2304 12.678 3.2304C12.6036 3.2304 12.5321 3.25993 12.4794 3.3125Z" fill="black"/>
<path d="M12.0731 6.55188L8.26406 10.3684C8.11684 10.516 7.9359 10.6255 7.73688 10.6875L6.9275 10.9584C6.73542 11.0127 6.53234 11.0147 6.3392 10.9644C6.14606 10.914 5.96985 10.813 5.82871 10.6719C5.68758 10.5308 5.58662 10.3546 5.53626 10.1614C5.4859 9.96828 5.48794 9.76521 5.54219 9.57312L5.81313 8.76375C5.87492 8.56478 5.98421 8.38385 6.13156 8.23656L9.94812 4.42688C9.98311 4.39193 10.0069 4.3474 10.0166 4.2989C10.0263 4.25041 10.0214 4.20014 10.0025 4.15445C9.98357 4.10875 9.95154 4.06969 9.91044 4.0422C9.86934 4.01471 9.82101 4.00002 9.77156 4H3.25C2.78587 4 2.34075 4.18437 2.01256 4.51256C1.68437 4.84075 1.5 5.28587 1.5 5.75V13.25C1.5 13.7141 1.68437 14.1592 2.01256 14.4874C2.34075 14.8156 2.78587 15 3.25 15H10.75C11.2141 15 11.6592 14.8156 11.9874 14.4874C12.3156 14.1592 12.5 13.7141 12.5 13.25V6.72844C12.5 6.67899 12.4853 6.63066 12.4578 6.58956C12.4303 6.54846 12.3912 6.51643 12.3456 6.49753C12.2999 6.47864 12.2496 6.47371 12.2011 6.48338C12.1526 6.49306 12.1081 6.51689 12.0731 6.55188Z" fill="black"/>
</svg>
