<svg width="16" height="16" viewBox="0 0 16 16" fill="none" xmlns="http://www.w3.org/2000/svg">
<path d="M12.3124 15C12.2072 15.0004 12.1045 14.9676 12.019 14.9063L7.99991 11.9925L3.98084 14.9063C3.89498 14.9685 3.79153 15.0019 3.68546 15.0015C3.57939 15.0011 3.47619 14.967 3.39078 14.9041C3.30537 14.8412 3.24218 14.7528 3.21034 14.6516C3.1785 14.5504 3.17966 14.4417 3.21366 14.3413L4.78116 9.69844L0.718657 6.9125C0.63066 6.85223 0.564246 6.76539 0.529117 6.66468C0.493988 6.56397 0.491985 6.45466 0.523402 6.35273C0.554819 6.2508 0.618008 6.16159 0.703738 6.09813C0.789468 6.03467 0.893245 6.00028 0.999907 6H6.01178L7.52428 1.34532C7.55686 1.24482 7.62044 1.15723 7.70589 1.09511C7.79134 1.03299 7.89426 0.999527 7.99991 0.999527C8.10555 0.999527 8.20848 1.03299 8.29393 1.09511C8.37937 1.15723 8.44295 1.24482 8.47553 1.34532L9.98803 6.00157H14.9999C15.1067 6.00151 15.2107 6.03566 15.2967 6.099C15.3827 6.16233 15.4461 6.25154 15.4777 6.35355C15.5094 6.45556 15.5075 6.56501 15.4724 6.66587C15.4373 6.76674 15.3708 6.85371 15.2827 6.91407L11.2187 9.69844L12.7852 14.34C12.8106 14.4152 12.8177 14.4953 12.806 14.5737C12.7944 14.6522 12.7642 14.7267 12.718 14.7912C12.6718 14.8557 12.6109 14.9082 12.5404 14.9445C12.4699 14.9809 12.3917 14.9999 12.3124 15Z" fill="black"/>
</svg>
