<svg width="16" height="17" viewBox="0 0 16 17" fill="none" xmlns="http://www.w3.org/2000/svg">
<path d="M2 5.625V13.25C2 13.7141 2.18437 14.1592 2.51256 14.4874C2.84075 14.8156 3.28587 15 3.75 15H12.25C12.7141 15 13.1592 14.8156 13.4874 14.4874C13.8156 14.1592 14 13.7141 14 13.25V5.625C14 5.59185 13.9868 5.56005 13.9634 5.53661C13.9399 5.51317 13.9082 5.5 13.875 5.5H2.125C2.09185 5.5 2.06005 5.51317 2.03661 5.53661C2.01317 5.56005 2 5.59185 2 5.625ZM10.3438 10.3634L8.35344 12.3534C8.25968 12.4471 8.13255 12.4998 8 12.4998C7.86745 12.4998 7.74032 12.4471 7.64656 12.3534L5.65625 10.3634C5.46594 10.1731 5.44844 9.86344 5.62969 9.66406C5.67519 9.61394 5.73039 9.57358 5.79195 9.54543C5.85351 9.51727 5.92014 9.50191 5.98781 9.50028C6.05549 9.49864 6.12279 9.51076 6.18563 9.53591C6.24848 9.56105 6.30557 9.5987 6.35344 9.64656L7.5 10.7928V7.51406C7.5 7.245 7.70687 7.01406 7.97594 7.00063C8.04354 6.99737 8.1111 7.00787 8.17453 7.0315C8.23796 7.05512 8.29593 7.09138 8.34492 7.13807C8.39392 7.18476 8.43293 7.24091 8.45959 7.30313C8.48625 7.36534 8.49999 7.43232 8.5 7.5V10.7928L9.64656 9.64656C9.69443 9.5987 9.75152 9.56105 9.81437 9.53591C9.87721 9.51076 9.94451 9.49864 10.0122 9.50028C10.0799 9.50191 10.1465 9.51727 10.2081 9.54543C10.2696 9.57358 10.3248 9.61394 10.3703 9.66406C10.5516 9.86312 10.5341 10.1731 10.3438 10.3634Z" fill="black"/>
<path d="M14 2H2C1.44772 2 1 2.44772 1 3V3.5C1 4.05228 1.44772 4.5 2 4.5H14C14.5523 4.5 15 4.05228 15 3.5V3C15 2.44772 14.5523 2 14 2Z" fill="black"/>
</svg>
