<svg width="16" height="17" viewBox="0 0 16 17" fill="none" xmlns="http://www.w3.org/2000/svg">
<path d="M15.5 5.25C15.5 4.78587 15.3156 4.34075 14.9874 4.01256C14.6592 3.68437 14.2141 3.5 13.75 3.5H6.87844C6.73047 3.50047 6.58569 3.45697 6.4625 3.375L5.59375 2.79406C5.30607 2.60169 4.96763 2.49932 4.62156 2.5H2.25C1.78587 2.5 1.34075 2.68437 1.01256 3.01256C0.684374 3.34075 0.5 3.78587 0.5 4.25V5.75C0.5 5.8163 0.526339 5.87989 0.573223 5.92678C0.620107 5.97366 0.683696 6 0.75 6H15.25C15.3163 6 15.3799 5.97366 15.4268 5.92678C15.4737 5.87989 15.5 5.8163 15.5 5.75V5.25ZM0.5 12.75C0.5 13.2141 0.684374 13.6592 1.01256 13.9874C1.34075 14.3156 1.78587 14.5 2.25 14.5H13.75C14.2141 14.5 14.6592 14.3156 14.9874 13.9874C15.3156 13.6592 15.5 13.2141 15.5 12.75V7.25C15.5 7.1837 15.4737 7.12011 15.4268 7.07322C15.3799 7.02634 15.3163 7 15.25 7H0.75C0.683696 7 0.620107 7.02634 0.573223 7.07322C0.526339 7.12011 0.5 7.1837 0.5 7.25V12.75Z" fill="black"/>
</svg>
