<svg width="16" height="16" viewBox="0 0 16 16" fill="none" xmlns="http://www.w3.org/2000/svg">
<path d="M13.0001 5C13.0003 4.6493 12.9082 4.30473 12.7332 4.00084C12.5581 3.69695 12.3062 3.44443 12.0028 3.26861C11.6994 3.09278 11.355 2.99984 11.0043 2.9991C10.6536 2.99836 10.3089 3.08985 10.0047 3.26439C9.70055 3.43893 9.44761 3.69038 9.27128 3.99353C9.09496 4.29668 9.00145 4.64086 9.00012 4.99155C8.9988 5.34225 9.08972 5.68713 9.26375 5.9916C9.43778 6.29607 9.68882 6.54942 9.99167 6.72625C9.92011 7.635 9.36417 7.8825 7.64792 8.23937C7.09292 8.35437 6.52511 8.47219 6.00073 8.67469V4.73094C6.38202 4.5108 6.68001 4.17101 6.84849 3.76425C7.01698 3.3575 7.04653 2.90651 6.93258 2.48125C6.81863 2.05598 6.56754 1.6802 6.21826 1.41218C5.86897 1.14416 5.441 0.998886 5.00073 0.998886C4.56046 0.998886 4.1325 1.14416 3.78321 1.41218C3.43392 1.6802 3.18283 2.05598 3.06888 2.48125C2.95493 2.90651 2.98449 3.3575 3.15297 3.76425C3.32146 4.17101 3.61945 4.5108 4.00073 4.73094V11.2691C3.62003 11.4889 3.32236 11.828 3.15377 12.2341C2.98518 12.6401 2.95506 13.0903 3.06806 13.5151C3.18107 13.94 3.43091 14.3158 3.77893 14.5844C4.12696 14.853 4.55379 14.9994 4.99341 15.001C5.43302 15.0027 5.86093 14.8594 6.21095 14.5934C6.56097 14.3274 6.8136 13.9535 6.92977 13.5295C7.04594 13.1055 7.01917 12.6551 6.85361 12.2478C6.68805 11.8406 6.39291 11.4992 6.01386 11.2766C6.08855 10.7141 6.51386 10.5162 8.05323 10.1978C8.91042 10.0206 9.79636 9.83719 10.5464 9.35562C11.4526 8.775 11.9379 7.89375 11.9951 6.73406C12.3004 6.55899 12.554 6.30647 12.7305 6.00201C12.907 5.69754 13 5.3519 13.0001 5ZM5.00011 2C5.19789 2 5.39123 2.05865 5.55568 2.16853C5.72013 2.27841 5.8483 2.43459 5.92399 2.61732C5.99968 2.80004 6.01948 3.00111 5.98089 3.19509C5.94231 3.38907 5.84707 3.56725 5.70721 3.70711C5.56736 3.84696 5.38918 3.9422 5.1952 3.98078C5.00122 4.01937 4.80015 3.99957 4.61742 3.92388C4.4347 3.84819 4.27852 3.72002 4.16864 3.55557C4.05876 3.39112 4.00011 3.19778 4.00011 3C4.00011 2.73478 4.10547 2.48043 4.293 2.29289C4.48054 2.10536 4.73489 2 5.00011 2ZM5.00011 14C4.80233 14 4.60899 13.9413 4.44454 13.8315C4.28009 13.7216 4.15192 13.5654 4.07623 13.3827C4.00054 13.2 3.98074 12.9989 4.01932 12.8049C4.05791 12.6109 4.15315 12.4327 4.293 12.2929C4.43285 12.153 4.61104 12.0578 4.80502 12.0192C4.999 11.9806 5.20007 12.0004 5.38279 12.0761C5.56552 12.1518 5.7217 12.28 5.83158 12.4444C5.94146 12.6089 6.00011 12.8022 6.00011 13C6.00011 13.2652 5.89475 13.5196 5.70721 13.7071C5.51968 13.8946 5.26532 14 5.00011 14ZM11.0001 6C10.8023 6 10.609 5.94135 10.4445 5.83147C10.2801 5.72159 10.1519 5.56541 10.0762 5.38268C10.0005 5.19996 9.98074 4.99889 10.0193 4.80491C10.0579 4.61093 10.1531 4.43275 10.293 4.29289C10.4329 4.15304 10.611 4.0578 10.805 4.01921C10.999 3.98063 11.2001 4.00043 11.3828 4.07612C11.5655 4.15181 11.7217 4.27998 11.8316 4.44443C11.9415 4.60888 12.0001 4.80222 12.0001 5C12.0001 5.26522 11.8948 5.51957 11.7072 5.70711C11.5197 5.89464 11.2653 6 11.0001 6Z" fill="black"/>
</svg>
