<svg width="20" height="17" viewBox="0 0 20 17" fill="none" xmlns="http://www.w3.org/2000/svg">
<path d="M19 5.60227C19 11.2273 10 16 10 16C10 16 1 11.2273 1 5.60227C1 4.38167 1.49234 3.21107 2.36871 2.34797C3.24508 1.48488 4.4337 1 5.67308 1C7.62798 1 9.3025 2.04915 10 3.72727C10.6975 2.04915 12.372 1 14.3269 1C15.5663 1 16.7549 1.48488 17.6313 2.34797C18.5077 3.21107 19 4.38167 19 5.60227Z" fill="white"/>
<path fill-rule="evenodd" clip-rule="evenodd" d="M5.67308 1.75C4.62895 1.75 3.62985 2.1586 2.89498 2.88234C2.1605 3.60569 1.75 4.58431 1.75 5.60227C1.75 6.80675 2.23287 8.01342 3.02607 9.17769C3.81795 10.34 4.88835 11.4142 5.98334 12.337C7.07526 13.2573 8.17095 14.0099 8.99555 14.5331C9.40709 14.7942 9.74922 14.997 9.98711 15.1337C9.99144 15.1362 9.99574 15.1387 10 15.1411C10.0043 15.1387 10.0086 15.1362 10.0129 15.1337C10.2508 14.997 10.5929 14.7942 11.0044 14.5331C11.8291 14.0099 12.9247 13.2573 14.0167 12.337C15.1117 11.4142 16.182 10.34 16.9739 9.17769C17.7671 8.01342 18.25 6.80675 18.25 5.60227C18.25 4.58431 17.8395 3.60569 17.105 2.88234C16.3702 2.1586 15.3711 1.75 14.3269 1.75C12.6422 1.75 11.2616 2.64595 10.6926 4.01513L10 5.68137L9.30744 4.01513C8.73835 2.64595 7.35781 1.75 5.67308 1.75ZM10 16C9.64862 16.6626 9.64843 16.6625 9.6482 16.6624L9.64571 16.661L9.63954 16.6578L9.61762 16.646C9.59883 16.6358 9.57174 16.6211 9.53691 16.6019C9.46727 16.5635 9.36665 16.5073 9.23945 16.4341C8.98516 16.2879 8.62416 16.0739 8.19195 15.7997C7.32905 15.2522 6.17474 14.46 5.01666 13.484C3.86165 12.5105 2.68205 11.3368 1.78643 10.0222C0.892131 8.70959 0.25 7.2103 0.25 5.60227C0.25 4.17903 0.824185 2.81645 1.84245 1.81361C2.86032 0.811161 4.23845 0.25 5.67308 0.25C7.41384 0.25 8.99757 0.985905 10 2.25774C11.0024 0.985905 12.5862 0.25 14.3269 0.25C15.7615 0.25 17.1397 0.811161 18.1576 1.81361C19.1758 2.81645 19.75 4.17903 19.75 5.60227C19.75 7.2103 19.1079 8.70959 18.2136 10.0222C17.318 11.3368 16.1383 12.5105 14.9833 13.484C13.8253 14.46 12.6709 15.2522 11.8081 15.7997C11.3758 16.0739 11.0148 16.2879 10.7605 16.4341C10.6334 16.5073 10.5327 16.5635 10.4631 16.6019C10.4283 16.6211 10.4012 16.6358 10.3824 16.646L10.3605 16.6578L10.3524 16.662C10.3522 16.6622 10.3514 16.6626 10 16ZM10 16L10.3514 16.6626L10 16.8489L9.6482 16.6624L10 16Z" fill="#3A3A3A"/>
</svg>
