<svg width="127" height="24" viewBox="0 0 127 24" fill="none" xmlns="http://www.w3.org/2000/svg">
<path fill-rule="evenodd" clip-rule="evenodd" d="M3 11.8719C3 7.53154 6.53154 4 10.8719 4C15.2123 4 18.7439 7.53154 18.7439 11.8719C18.7434 13.6189 18.1584 15.3156 17.0819 16.6915L20.7118 20.3215C21.0961 20.7057 21.0961 21.3286 20.7118 21.7128C20.3276 22.097 19.7047 22.097 19.3205 21.7128L15.6905 18.0829C14.3147 19.1588 12.6185 19.7435 10.8719 19.7439C6.53154 19.7439 3 16.2123 3 11.8719ZM17.0393 10.1764C17.1289 10.5022 16.9032 10.8203 16.5703 10.8783C16.2374 10.9364 15.924 10.712 15.8271 10.3883C15.6211 9.70019 15.2732 9.0603 14.8036 8.51095C14.201 7.80603 13.4199 7.27612 12.5421 6.9767C11.6644 6.67728 10.7223 6.61936 9.81449 6.80902C9.10702 6.95683 8.44066 7.25075 7.85705 7.66948C7.58249 7.86647 7.19729 7.85254 6.96927 7.60315C6.74125 7.35375 6.75699 6.96407 7.02702 6.76091C7.77602 6.19741 8.64187 5.80386 9.56424 5.61116C10.6868 5.37663 11.8518 5.44825 12.9372 5.81851C14.0226 6.18877 14.9885 6.84406 15.7337 7.71575C16.346 8.43197 16.7909 9.27263 17.0393 10.1764Z" fill="white"/>
<path d="M36.816 18.238C34.072 18.238 32.406 16.194 32.406 13.044C32.406 9.922 34.282 7.822 37.334 7.822C39.938 7.822 41.352 9.222 41.66 10.874L39.322 11.308C39.154 10.37 38.538 9.6 37.32 9.6C35.738 9.6 34.828 10.916 34.828 13.016C34.828 15.102 35.682 16.418 37.348 16.418C38.86 16.418 39.546 15.242 39.546 14.374V14.164H37.096V12.47H41.702V18H40.022L39.924 16.544C39.42 17.608 38.314 18.238 36.816 18.238ZM43.328 9.992V7.948H45.666V9.992H43.328ZM43.356 18V11H45.61V18H43.356ZM46.6169 12.498V11H47.8349V9.32L50.0749 8.452V11H51.7409V12.498H50.0749V15.228C50.0749 15.928 50.4249 16.292 51.0969 16.292C51.3629 16.292 51.5309 16.264 51.7409 16.222V18C51.2229 18.098 50.8729 18.14 50.4669 18.14C48.6049 18.14 47.8349 17.286 47.8349 15.76V12.498H46.6169ZM61.6877 8.06V18H59.3217V13.87H55.4997V18H53.1337V8.06H55.4997V12.05H59.3217V8.06H61.6877ZM65.8987 18.168C64.2467 18.168 63.5467 17.174 63.5467 15.536V11H65.7867V15.144C65.7867 16.012 66.1367 16.46 66.7947 16.46C67.5227 16.46 67.9707 15.886 67.9707 15.004V11H70.2247V18H68.0827V16.726C67.7467 17.608 66.9207 18.168 65.8987 18.168ZM76.4203 18.168C75.4403 18.168 74.6703 17.692 74.3063 16.936L74.1663 18H72.1643V7.85H74.4183V11.952C74.7823 11.28 75.5243 10.832 76.4903 10.832C78.2123 10.832 79.3043 12.288 79.3043 14.5C79.3043 16.726 78.1843 18.168 76.4203 18.168ZM75.6643 16.614C76.5183 16.614 76.9943 15.858 76.9943 14.5C76.9943 13.17 76.5323 12.386 75.6503 12.4C74.8383 12.4 74.3623 13.086 74.3623 14.206V14.794C74.3623 15.928 74.8383 16.614 75.6643 16.614ZM84.1095 18.238C81.9675 18.238 80.4275 17.328 79.7415 15.928L81.4915 14.696C82.0095 15.718 82.8775 16.404 84.1935 16.404C85.1455 16.404 85.9015 16.054 85.9015 15.27C85.9015 14.528 85.4675 14.248 84.4595 14.038L83.1295 13.758C81.3935 13.38 80.3855 12.442 80.3855 10.776C80.3855 8.956 81.8695 7.822 84.2635 7.822C86.0275 7.822 87.5115 8.466 88.2115 9.796L86.6715 11.098C86.1675 10.132 85.2435 9.572 84.1095 9.572C83.1715 9.572 82.5695 9.964 82.5695 10.594C82.5695 11.238 82.9615 11.56 84.0115 11.798L85.4535 12.106C87.2175 12.498 88.1695 13.338 88.1695 15.046C88.1695 16.936 86.7135 18.238 84.1095 18.238ZM95.9662 14.332V15.004H91.1082C91.1222 15.956 91.7802 16.558 92.7182 16.558C93.4042 16.558 93.9222 16.222 94.2442 15.578L95.8962 16.334C95.3362 17.482 94.1462 18.168 92.6902 18.168C90.3802 18.168 88.9802 16.838 88.9802 14.57C88.9802 12.274 90.3522 10.832 92.5362 10.832C94.7342 10.832 95.9662 12.106 95.9662 14.332ZM93.7962 13.744V13.688C93.7962 12.694 93.3342 12.162 92.4942 12.162C91.6262 12.162 91.1362 12.75 91.1082 13.744H93.7962ZM99.2212 18.168C97.7792 18.168 96.8132 17.342 96.8132 16.096C96.8132 15.438 97.0512 14.92 97.5272 14.584C97.9892 14.262 98.6612 14.038 99.7252 13.898L101.419 13.66V13.422C101.419 12.624 101.083 12.274 100.383 12.274C99.6972 12.274 99.3052 12.638 99.2632 13.31H97.0372C97.1492 11.756 98.4092 10.832 100.397 10.832C102.651 10.832 103.659 11.714 103.659 13.73V16.054C103.659 16.88 103.729 17.566 103.855 18H101.671C101.601 17.664 101.573 17.286 101.559 16.894C101.209 17.678 100.313 18.168 99.2212 18.168ZM100.061 16.74C100.915 16.74 101.489 16.166 101.489 15.326V14.766L100.285 14.962C99.4592 15.116 99.0812 15.41 99.0812 15.928C99.0812 16.418 99.4732 16.74 100.061 16.74ZM107.527 12.806C107.891 11.546 108.661 10.832 109.865 10.832H110.005V12.974C109.865 12.96 109.753 12.96 109.585 12.96C108.983 12.96 108.535 13.114 108.227 13.38C107.779 13.8 107.667 14.43 107.667 15.144V18H105.413V11H107.527V12.806ZM114.209 18.168C111.997 18.168 110.527 16.726 110.527 14.5C110.527 12.218 111.941 10.832 114.237 10.832C116.071 10.832 117.289 11.728 117.555 13.31L115.441 13.744C115.315 12.918 114.867 12.484 114.181 12.484C113.327 12.484 112.809 13.212 112.809 14.43C112.809 15.746 113.313 16.502 114.195 16.502C114.895 16.502 115.329 16.04 115.455 15.2L117.555 15.662C117.303 17.202 116.001 18.168 114.209 18.168ZM118.922 18V7.85H121.176V12.246C121.61 11.28 122.352 10.804 123.402 10.804C124.914 10.804 125.684 11.77 125.684 13.646V18H123.444V13.87C123.444 12.974 123.094 12.526 122.408 12.526C121.61 12.526 121.176 13.128 121.176 14.234V18H118.922Z" fill="white"/>
</svg>
