<svg width="16" height="17" viewBox="0 0 16 17" fill="none" xmlns="http://www.w3.org/2000/svg">
<path d="M13.5 1.5H2.5C1.96974 1.50058 1.46137 1.71148 1.08643 2.08643C0.711479 2.46137 0.500579 2.96974 0.5 3.5V13.5C0.500579 14.0303 0.711479 14.5386 1.08643 14.9136C1.46137 15.2885 1.96974 15.4994 2.5 15.5H13.5C14.0303 15.4994 14.5386 15.2885 14.9136 14.9136C15.2885 14.5386 15.4994 14.0303 15.5 13.5V3.5C15.4994 2.96974 15.2885 2.46137 14.9136 2.08643C14.5386 1.71148 14.0303 1.50058 13.5 1.5ZM3 8.5C2.89641 8.5 2.79538 8.46782 2.71086 8.40792C2.62635 8.34802 2.56253 8.26334 2.52822 8.1656C2.49391 8.06785 2.49081 7.96186 2.51934 7.86228C2.54787 7.76269 2.60663 7.67443 2.6875 7.60969L4.69969 6L2.6875 4.39031C2.6362 4.34927 2.59349 4.29853 2.5618 4.24099C2.53011 4.18344 2.51007 4.12022 2.50282 4.05493C2.49556 3.98964 2.50124 3.92356 2.51952 3.86046C2.5378 3.79736 2.56834 3.73849 2.60938 3.68719C2.65041 3.63589 2.70115 3.59318 2.7587 3.56149C2.81624 3.5298 2.87947 3.50976 2.94476 3.5025C3.01005 3.49525 3.07613 3.50092 3.13923 3.51921C3.20232 3.53749 3.2612 3.56802 3.3125 3.60906L5.8125 5.60906C5.87112 5.6559 5.91845 5.71533 5.95098 5.78296C5.9835 5.85058 6.00039 5.92465 6.00039 5.99969C6.00039 6.07472 5.9835 6.1488 5.95098 6.21642C5.91845 6.28404 5.87112 6.34347 5.8125 6.39031L3.3125 8.39031C3.22382 8.46131 3.1136 8.5 3 8.5ZM8 8.5H6C5.86739 8.5 5.74021 8.44732 5.64645 8.35355C5.55268 8.25979 5.5 8.13261 5.5 8C5.5 7.86739 5.55268 7.74021 5.64645 7.64645C5.74021 7.55268 5.86739 7.5 6 7.5H8C8.13261 7.5 8.25979 7.55268 8.35355 7.64645C8.44732 7.74021 8.5 7.86739 8.5 8C8.5 8.13261 8.44732 8.25979 8.35355 8.35355C8.25979 8.44732 8.13261 8.5 8 8.5Z" fill="black"/>
</svg>
